# File created by Blade
# Date/Time:  Wed Jan 21 16:02:10 2015
#---------------------------------------------------------
:version 1.10
:name HOM
:units
  mass 1.0
  length 1.000000
  angle deg
:documentation
     Acclaim Skeleton File
:root
   axis xyz
   order TX TY TZ RX RY RZ
   position 0.000000 0.000000 0.000000
   orientation 0 0 0
:bonedata
   begin
      id 1
      name Spine_dum
      direction 0.000000 1.000000 0.000000
      length 7.067664
      axis 0.0 0.0 0.0 xyz
   end
   begin
      id 2
      name LeftUpLeg_dum
      direction 1.000000 0.000000 0.000000
      length 4.013002
      axis 0.0 0.0 0.0 xyz
   end
   begin
      id 3
      name RightUpLeg_dum
      direction -1.000000 0.000000 0.000000
      length 4.013002
      axis 0.0 0.0 0.0 xyz
   end
   begin
      id 4
      name Spine
      direction 0.000000 1.000000 0.000000
      length 0.000000
      axis 0.0 0.0 0.0 xyz
      dof rx ry rz
   end
   begin
      id 5
      name Spine_dum1
      direction 0.000000 1.000000 0.000000
      length 15.039886
      axis 0.0 0.0 0.0 xyz
   end
   begin
      id 6
      name Spine_dum2
      direction 0.000000 1.000000 0.000000
      length 10.530368
      axis 0.0 0.0 0.0 xyz
   end
   begin
      id 7
      name Spine_dum3
      direction 0.000000 1.000000 0.000000
      length 10.530368
      axis 0.0 0.0 0.0 xyz
   end
   begin
      id 8
      name Head
      direction 0.000000 1.000000 0.000000
      length 4.527550
      axis 0.0 0.0 0.0 xyz
      dof rx ry rz
   end
   begin
      id 9
      name LeftShoulder
      direction 1.000000 0.000000 0.000000
      length 7.028855
      axis 0.0 0.0 -90.0 xyz
      dof rx ry rz
   end
   begin
      id 10
      name LeftArm
      direction 1.000000 0.000000 0.000000
      length 10.797705
      axis 0.0 0.0 -90.0 xyz
      dof rx ry rz
   end
   begin
      id 11
      name LeftForeArm
      direction 1.000000 0.000000 0.000000
      length 7.907442
      axis 0.0 0.0 -90.0 xyz
      dof ry rz rx
   end
   begin
      id 12
      name LeftHand
      direction 0.000000 0.000000 0.000000
      length 0.000000
      axis 0.0 0.0 -90.0 xyz
      dof rx ry rz
   end
   begin
      id 13
      name LeftHand_dum1
      direction 0.000000 0.000000 0.000000
      length 0.000000
      axis 0.0 0.0 -90.0 xyz
   end
   begin
      id 14
      name LeftHand_dum2
      direction 1.000000 0.000000 0.000000
      length 3.937000
      axis 0.0 0.0 -90.0 xyz
   end
   begin
      id 15
      name LeftHandThumb1
      direction 0.000000 0.000000 1.000000
      length 3.937000
      axis 0.0 0.0 -90.0 xyz
      dof rx rz ry
   end
   begin
      id 16
      name RightShoulder
      direction -1.000000 0.000000 0.000000
      length 7.028855
      axis 0.0 0.0 90.0 xyz
      dof rx ry rz
   end
   begin
      id 17
      name RightArm
      direction -1.000000 0.000000 0.000000
      length 10.797705
      axis 0.0 0.0 90.0 xyz
      dof rx ry rz
   end
   begin
      id 18
      name RightForeArm
      direction -1.000000 0.000000 0.000000
      length 7.907442
      axis 0.0 0.0 90.0 xyz
      dof ry rz rx
   end
   begin
      id 19
      name RightHand
      direction 0.000000 0.000000 0.000000
      length 0.000000
      axis 0.0 0.0 90.0 xyz
      dof rx ry rz
   end
   begin
      id 20
      name RightHand_dum1
      direction 0.000000 0.000000 0.000000
      length 0.000000
      axis 0.0 0.0 90.0 xyz
   end
   begin
      id 21
      name RightHand_dum2
      direction -1.000000 0.000000 0.000000
      length 3.937000
      axis 0.0 0.0 90.0 xyz
   end
   begin
      id 22
      name RightHandThumb1
      direction 0.000000 0.000000 1.000000
      length 3.937000
      axis 0.0 0.0 90.0 xyz
      dof rx rz ry
   end
   begin
      id 23
      name LeftUpLeg
      direction 0.000000 -1.000000 0.000000
      length 16.899758
      axis 0.0 0.0 0.0 xyz
      dof rx ry rz
   end
   begin
      id 24
      name LeftLeg
      direction 0.000000 -1.000000 0.000000
      length 17.389183
      axis 0.0 0.0 0.0 xyz
      dof rx ry rz
   end
   begin
      id 25
      name LeftFoot
      direction 0.000000 -0.258819 0.965926
      length 4.924528
      axis 15.0 0.0 0.0 xyz
      dof rx ry rz
   end
   begin
      id 26
      name LeftToeBase
      direction 0.000000 0.000000 1.000000
      length 2.952750
      axis 0.0 0.0 0.0 xyz
      dof rx ry rz
   end
   begin
      id 27
      name RightUpLeg
      direction 0.000000 -1.000000 0.000000
      length 16.899758
      axis 0.0 0.0 0.0 xyz
      dof rx ry rz
   end
   begin
      id 28
      name RightLeg
      direction 0.000000 -1.000000 0.000000
      length 17.389183
      axis 0.0 0.0 0.0 xyz
      dof rx ry rz
   end
   begin
      id 29
      name RightFoot
      direction 0.000000 -0.258819 0.965926
      length 4.924528
      axis 15.0 0.0 0.0 xyz
      dof rx ry rz
   end
   begin
      id 30
      name RightToeBase
      direction 0.000000 0.000000 1.000000
      length 2.952750
      axis 0.0 0.0 0.0 xyz
      dof rx ry rz
   end
:hierarchy
   begin
      root Spine_dum LeftUpLeg_dum RightUpLeg_dum
      Spine_dum Spine
      LeftUpLeg_dum LeftUpLeg
      RightUpLeg_dum RightUpLeg
      Spine Spine_dum1 Spine_dum2 Spine_dum3
      Spine_dum1 Head
      Spine_dum2 LeftShoulder
      Spine_dum3 RightShoulder
      LeftShoulder LeftArm
      LeftArm LeftForeArm
      LeftForeArm LeftHand
      LeftHand LeftHand_dum1 LeftHand_dum2
      LeftHand_dum1 LeftHandThumb1
      RightShoulder RightArm
      RightArm RightForeArm
      RightForeArm RightHand
      RightHand RightHand_dum1 RightHand_dum2
      RightHand_dum1 RightHandThumb1
      LeftUpLeg LeftLeg
      LeftLeg LeftFoot
      LeftFoot LeftToeBase
      RightUpLeg RightLeg
      RightLeg RightFoot
      RightFoot RightToeBase
   end

# File created by Blade
# Date/Time:  Wed Jan 21 16:02:01 2015
# Frame Rate: 120.000 fps
#------------------------------------------------------
:FULLY-SPECIFIED
:DEGREES
1
root 18.176976 35.345831 -21.817081 -172.571413 -2.728887 -178.287633
Spine -18.116247 1.026275 1.837825
Head 7.394051 -3.609326 0.495954
LeftShoulder -12.093275 -34.695373 20.938010
LeftArm 4.676615 5.238656 -6.924490
LeftForeArm 11.744614 -0.000000 -2.710972
LeftHand -7.839932 -0.000000 -9.454436
LeftHandThumb1 -26.253704 0.000000 33.147579
RightShoulder -13.719107 -3.944225 -11.687583
RightArm 8.632500 38.714572 9.670460
RightForeArm -35.775679 -0.000000 3.827057
RightHand -5.319604 -0.000000 7.929469
RightHandThumb1 -24.326973 -0.000000 -32.862282
LeftUpLeg 3.266257 9.705924 3.876907
LeftLeg -6.850785 -0.000000 0.000000
LeftFoot -21.788684 24.710671 -13.480679
LeftToeBase 27.129789 -0.000000 -0.000000
RightUpLeg 2.423314 -8.727926 0.401475
RightLeg -4.433261 -0.000000 0.000000
RightFoot -21.921296 -22.897941 16.544867
RightToeBase 24.270483 -0.000000 -0.000000
2
root 18.176272 35.346664 -21.813609 -172.582418 -2.714694 -178.285483
Spine -18.101941 1.044539 1.841421
Head 7.391081 -3.599082 0.496657
LeftShoulder -12.067118 -34.717983 20.936956
LeftArm 4.665608 5.247753 -6.942154
LeftForeArm 11.730392 -0.000000 -2.700232
LeftHand -7.830034 -0.000000 -9.450269
LeftHandThumb1 -26.253704 0.000000 33.147579
RightShoulder -13.720103 -3.931509 -11.696044
RightArm 8.604789 38.692454 9.653248
RightForeArm -35.758690 -0.000000 3.849836
RightHand -5.359591 -0.000000 7.923967
RightHandThumb1 -24.326973 -0.000000 -32.862282
LeftUpLeg 3.267436 9.721368 3.876285
LeftLeg -6.837687 -0.000000 0.000000
LeftFoot -21.784107 24.702906 -13.477550
LeftToeBase 27.093804 -0.000000 -0.000000
RightUpLeg 2.419431 -8.729429 0.400105
RightLeg -4.418280 -0.000000 0.000000
RightFoot -21.916741 -22.884366 16.550722
RightToeBase 24.272260 -0.000000 -0.000000
3
root 18.176449 35.347294 -21.809391 -172.593578 -2.708163 -178.285972
Spine -18.084567 1.046515 1.839282
Head 7.380427 -3.594464 0.510220
LeftShoulder -12.039104 -34.742483 20.943852
LeftArm 4.642857 5.253000 -6.958700
LeftForeArm 11.738752 -0.000000 -2.683669
LeftHand -7.838354 -0.000000 -9.455990
LeftHandThumb1 -26.253704 0.000000 33.147579
RightShoulder -13.713371 -3.946844 -11.687336
RightArm 8.584136 38.739785 9.635848
RightForeArm -35.774034 -0.000000 3.855034
RightHand -5.359645 -0.000000 7.944121
RightHandThumb1 -24.326973 -0.000000 -32.862282
LeftUpLeg 3.266544 9.710416 3.875999
LeftLeg -6.826076 -0.000000 0.000000
LeftFoot -21.789922 24.719636 -13.479811
LeftToeBase 27.128465 -0.000000 -0.000000
RightUpLeg 2.424496 -8.705901 0.400732
RightLeg -4.425252 -0.000000 0.000000
RightFoot -21.920865 -22.913393 16.570005
RightToeBase 24.245645 -0.000000 -0.000000
4
root 18.175263 35.348201 -21.805981 -172.609752 -2.701930 -178.291729
Spine -18.063391 1.044396 1.839436
Head 7.374663 -3.598375 0.505172
LeftShoulder -12.020020 -34.758260 20.936387
LeftArm 4.646176 5.264917 -6.962566
LeftForeArm 11.723529 -0.000000 -2.696476
LeftHand -7.831539 0.000000 -9.442875
LeftHandThumb1 -26.253704 0.000000 33.147579
RightShoulder -13.696457 -3.931489 -11.699518
RightArm 8.543365 38.728965 9.617722
RightForeArm -35.788494 -0.000000 3.866421
RightHand -5.321764 -0.000000 7.909765
RightHandThumb1 -24.326973 -0.000000 -32.862282
LeftUpLeg 3.268283 9.703734 3.870613
LeftLeg -6.803469 -0.000000 0.000000
LeftFoot -21.791981 24.719310 -13.488708
LeftToeBase 27.101311 -0.000000 -0.000000
RightUpLeg 2.430868 -8.717076 0.390646
RightLeg -4.417357 -0.000000 0.000000
RightFoot -21.905903 -22.898251 16.556758
RightToeBase 24.231965 -0.000000 -0.000000
5
root 18.175401 35.349374 -21.801691 -172.627571 -2.698471 -178.293917
Spine -18.038027 1.045992 1.835530
Head 7.375502 -3.595978 0.517360
LeftShoulder -11.985553 -34.749409 20.926462
LeftArm 4.638983 5.225130 -6.978688
LeftForeArm 11.767830 -0.000000 -2.684122
LeftHand -7.851413 0.000000 -9.395488
LeftHandThumb1 -26.253704 0.000000 33.147579
RightShoulder -13.713090 -3.954239 -11.678654
RightArm 8.573174 38.790731 9.615254
RightForeArm -35.812575 -0.000000 3.851968
RightHand -5.299681 0.000000 7.920166
RightHandThumb1 -24.326973 -0.000000 -32.862282
LeftUpLeg 3.268311 9.698172 3.869634
LeftLeg -6.782654 -0.000000 0.000000
LeftFoot -21.795172 24.728615 -13.488660
LeftToeBase 27.079966 -0.000000 -0.000000
RightUpLeg 2.438394 -8.715966 0.386564
RightLeg -4.411810 -0.000000 0.000000
RightFoot -21.910141 -22.895131 16.570005
RightToeBase 24.265116 -0.000000 -0.000000
6
root 18.174755 35.350785 -21.795851 -172.634018 -2.697802 -178.301496
Spine -18.024522 1.037713 1.829045
Head 7.376385 -3.603769 0.527170
LeftShoulder -11.953857 -34.764395 20.914186
LeftArm 4.638327 5.259034 -6.976481
LeftForeArm 11.754336 -0.000000 -2.695215
LeftHand -7.853731 -0.000000 -9.395456
LeftHandThumb1 -26.253704 0.000000 33.147579
RightShoulder -13.700915 -3.961376 -11.675872
RightArm 8.565714 38.870370 9.612951
RightForeArm -35.849433 0.000000 3.851659
RightHand -5.288053 0.000000 7.916030
RightHandThumb1 -24.326973 -0.000000 -32.862282
LeftUpLeg 3.247399 9.682730 3.860778
LeftLeg -6.748746 -0.000000 0.000000
LeftFoot -21.799600 24.749046 -13.475270
LeftToeBase 27.134877 -0.000000 -0.000000
RightUpLeg 2.433668 -8.714338 0.378238
RightLeg -4.409236 -0.000000 0.000000
RightFoot -21.899511 -22.910468 16.556934
RightToeBase 23.843251 -0.000000 -0.000000
7
root 18.174320 35.352268 -21.790287 -172.645019 -2.688018 -178.306606
Spine -18.007285 1.040049 1.824256
Head 7.392068 -3.598031 0.534273
LeftShoulder -11.918524 -34.775164 20.898405
LeftArm 4.648623 5.252384 -6.980389
LeftForeArm 11.764556 -0.000000 -2.727612
LeftHand -7.861505 0.000000 -9.352190
LeftHandThumb1 -26.253704 0.000000 33.147579
RightShoulder -13.694091 -3.973004 -11.672330
RightArm 8.567799 38.915058 9.614026
RightForeArm -35.903649 -0.000000 3.847064
RightHand -5.298465 -0.000000 7.901725
RightHandThumb1 -24.326973 -0.000000 -32.862282
LeftUpLeg 3.238165 9.663894 3.853934
LeftLeg -6.723314 -0.000000 0.000000
LeftFoot -21.807945 24.763890 -13.512578
LeftToeBase 27.072273 -0.000000 -0.000000
RightUpLeg 2.428248 -8.719209 0.370949
RightLeg -4.398661 -0.000000 0.000000
RightFoot -21.883320 -22.903075 16.541960
RightToeBase 24.263800 -0.000000 -0.000000
8
root 18.174102 35.353737 -21.785076 -172.654480 -2.689892 -178.312481
Spine -17.990958 1.034606 1.819222
Head 7.403554 -3.607450 0.535634
LeftShoulder -11.883509 -34.807347 20.889038
LeftArm 4.650171 5.296501 -6.982806
LeftForeArm 11.778724 0.000000 -2.746602
LeftHand -7.820623 -0.000000 -9.364640
LeftHandThumb1 -26.253704 0.000000 33.147579
RightShoulder -13.680497 -3.939893 -11.693137
RightArm 8.533075 38.916837 9.614203
RightForeArm -35.913172 -0.000000 3.874970
RightHand -5.286314 -0.000000 7.896972
RightHandThumb1 -24.326973 -0.000000 -32.862282
LeftUpLeg 3.224510 9.642404 3.847965
LeftLeg -6.694541 -0.000000 0.000000
LeftFoot -21.807676 24.778117 -13.516777
LeftToeBase 27.053841 -0.000000 -0.000000
RightUpLeg 2.422922 -8.730116 0.367087
RightLeg -4.386216 -0.000000 0.000000
RightFoot -21.887045 -22.886001 16.579787
RightToeBase 24.190611 -0.000000 -0.000000
9
root 18.173255 35.355115 -21.779150 -172.659963 -2.679022 -178.316465
Spine -17.980264 1.036952 1.819867
Head 7.425359 -3.596660 0.546923
LeftShoulder -11.855820 -34.816853 20.873118
LeftArm 4.659046 5.312540 -6.984246
LeftForeArm 11.771327 -0.000000 -2.753341
LeftHand -7.808379 -0.000000 -9.383847
LeftHandThumb1 -26.253704 0.000000 33.147579
RightShoulder -13.663429 -3.933452 -11.698276
RightArm 8.513112 38.899870 9.589790
RightForeArm -35.903453 -0.000000 3.875042
RightHand -5.321849 0.000000 7.878622
RightHandThumb1 -24.326973 -0.000000 -32.862282
LeftUpLeg 3.210588 9.646651 3.841806
LeftLeg -6.670800 -0.000000 0.000000
LeftFoot -21.808198 24.764948 -13.534968
LeftToeBase 27.057190 -0.000000 -0.000000
RightUpLeg 2.410053 -8.729417 0.359867
RightLeg -4.372074 -0.000000 0.000000
RightFoot -21.884049 -22.885556 16.553453
RightToeBase 24.270314 -0.000000 -0.000000
10
root 18.173537 35.356566 -21.772274 -172.665253 -2.674449 -178.315741
Spine -17.966438 1.035438 1.824037
Head 7.438969 -3.606053 0.546641
LeftShoulder -11.821703 -34.825824 20.860888
LeftArm 4.657169 5.295813 -6.994548
LeftForeArm 11.799640 0.000000 -2.753832
LeftHand -7.781643 -0.000000 -9.397229
LeftHandThumb1 -26.253704 0.000000 33.147579
RightShoulder -13.650526 -3.912143 -11.706452
RightArm 8.496666 38.872584 9.571014
RightForeArm -35.877859 -0.000000 3.870233
RightHand -5.327229 -0.000000 7.869048
RightHandThumb1 -24.326973 -0.000000 -32.862282
LeftUpLeg 3.194247 9.640586 3.842176
LeftLeg -6.648375 -0.000000 0.000000
LeftFoot -21.806590 24.779733 -13.526987
LeftToeBase 27.020634 -0.000000 -0.000000
RightUpLeg 2.395710 -8.694068 0.357634
RightLeg -4.355780 -0.000000 0.000000
RightFoot -21.879135 -22.910702 16.562280
RightToeBase 24.262872 -0.000000 -0.000000
